PathFileType	4	(X/Y/Z)	17_2_34_p1_0-414.trc
DataRate	CameraRate	NumFrames	NumMarkers	Units	OrigDataRate	OrigDataStartFrame	OrigNumFrames
56.0	56.0	7	27	m	56.0	259	415
Frame#	Time	RHip			RKnee			RAnkle			RBigToe			RSmallToe			RHeel			LHip			LKnee			LAnkle			LBigToe			LSmallToe			LHeel			Neck			Head			Nose			RShoulder			RElbow			RWrist			RThumb			RIndex			RPinky			LShoulder			LElbow			LWrist			LThumb			LIndex			LPinky			
		X1	Y1	Z1	X2	Y2	Z2	X3	Y3	Z3	X4	Y4	Z4	X5	Y5	Z5	X6	Y6	Z6	X7	Y7	Z7	X8	Y8	Z8	X9	Y9	Z9	X10	Y10	Z10	X11	Y11	Z11	X12	Y12	Z12	X13	Y13	Z13	X14	Y14	Z14	X15	Y15	Z15	X16	Y16	Z16	X17	Y17	Z17	X18	Y18	Z18	X19	Y19	Z19	X20	Y20	Z20	X21	Y21	Z21	X22	Y22	Z22	X23	Y23	Z23	X24	Y24	Z24	X25	Y25	Z25	X26	Y26	Z26	X27	Y27	Z27	
259	4.625	0.27606963034039184	0.4803996399617857	0.8329524814739888	0.24102960979394777	0.5445995225517921	1.2623632182205993	0.2220330667093816	0.7256482766218287	1.702538159656979	0.23738159314015825	0.532327183781959	1.728603828600477	0.28708487727751314	0.573746286871431	1.7386109606524223	0.19650216057099879	0.7972705893725288	1.7689863738997156	0.074922771481583	0.48958185385532593	0.8456229541325445	0.06177167103932223	0.5358787774960649	1.253550896076282	0.041805154902556825	0.6582993298853931	1.6971681905251066	0.08589284653998375	0.49631771884587295	1.7236142487643582	0.02802442301388555	0.5159517856138844	1.7206894305433786	0.04911797957344094	0.7384536328820808	1.7592010829471598	0.12998636097618235	0.4952552577796359	0.22353342205506158	0.09533668376301103	0.39107207736230515	-0.0005247218732118281	0.09549474415069963	0.37139421836260605	0.13584170457762237	0.2961012870806656	0.4600333173120281	0.2867858218692352	0.5367660500290236	0.3823025807036251	0.4201394269826348	0.551665482288728	0.16962487857953493	0.2949579244356504	0.48873586405132174	0.05591878839212791	0.2538637721774574	0.4933049906249164	0.03583463911576655	0.2562296391552511	0.5548767799223693	0.03879610943751795	0.2798419194265992	0.0008171831092957962	0.49922665226662066	0.30015192876911323	-0.24663615299926522	0.43990118009141804	0.31597925875050575	-0.11301823814207826	0.3366325152825575	0.15127648932091003	-0.04011381622043738	0.2748326376695214	0.09637470229807048	-0.04557903771258961	0.27949608989943164	0.06967564505603903	-0.09405071629516656	0.29580793710614545	0.0789118929060951
260	4.642857142857143	0.2759812274582875	0.4803989556736448	0.8328196995111862	0.24092983281092095	0.5447424977181515	1.2624427142443968	0.2156376692360888	0.7425000279573366	1.7109407650657724	0.23728868035296302	0.5326857415485805	1.7286166867272639	0.2844022631498249	0.5627053646205943	1.7288950578150142	0.1963144672830194	0.7976635957648256	1.7685899621848975	0.07542578778611986	0.48938785276701247	0.8416760898435784	0.05476641423268838	0.5507996583532778	1.2591474697747573	0.041830797634344045	0.6582705662651921	1.6972820540454887	0.0849266160137008	0.4965924724006797	1.7276978363140412	0.033724778751772606	0.5029213488084641	1.7175506580151076	0.049100363083702324	0.7384396966149379	1.758883515469656	0.1378547460502948	0.4999272814107962	0.22316058937249325	0.09535043547568581	0.38984882447905106	-0.006876505265573498	0.10100324550689846	0.35994486728805963	0.13579824164951632	0.29412064555964995	0.4490207408224553	0.2826090846159202	0.5325808591953354	0.39449646308442876	0.4285632411075242	0.5536058308028243	0.17109377965445857	0.32448385646055233	0.4878461440017469	0.04905868221663519	0.2603695866880954	0.4869058436792896	0.01632704607717944	0.2650975200655254	0.5424903994476103	0.049332634910193254	0.3027218417023094	0.00489089079361365	0.5013225727030568	0.29976274584335544	-0.24690562660234405	0.44127445968577544	0.322758005635591	-0.11059872944457344	0.32338800494782655	0.15163584201551625	-0.04609240658251291	0.28254842374509237	0.09648845776871823	-0.046041071907992906	0.27994901273143497	0.07292571593454863	-0.09834425126810285	0.28382534730662323	0.08321138648842209
261	4.660714285714286	0.2760206881342099	0.48057573233299145	0.8329838737376688	0.24057290025432146	0.5456255998862367	1.2588498616321022	0.21568463890180017	0.7427180555802484	1.7110253747794433	0.2372015342154066	0.5326250075610273	1.7286482856314738	0.27856842286535544	0.577991777446149	1.7371851107202605	0.19751882440833846	0.7972186139454568	1.7633204073381215	0.07107027366944782	0.4875402151555925	0.8454641656044358	0.05452936653414276	0.5512547267959459	1.2593090816944295	0.03479459245651991	0.6736268845961475	1.7048889330494863	0.08482035931508276	0.49664012695515486	1.7277689041138389	0.02674098750513156	0.5168684383903219	1.7252453273657467	0.04902812604768778	0.7386891375319007	1.758766688094562	0.13854490622616747	0.5002530469111282	0.22315422706496424	0.10221791050354627	0.3893232186194405	-0.00732303452626439	0.09546529827539092	0.37096540080917656	0.13547994192753557	0.3066489281638073	0.4750539604298265	0.2860346538995651	0.5288960943813489	0.4088227662845307	0.43733926878662716	0.5475159882042184	0.18135354657503294	0.33879969043847386	0.49298946897299295	0.0657076014761678	0.2824421425216732	0.49056134768131526	0.04063645853361673	0.3002907033771326	0.5440693935707835	0.05116818062901267	0.33246457312330235	0.004946564669502921	0.5011050626210969	0.29951468475738696	-0.24683011229056565	0.42772791956753836	0.3226027512658798	-0.11687586152942714	0.3336766846969853	0.15181093705219065	-0.047736420126181185	0.2709156622940679	0.09444382448669053	-0.047719039597446763	0.27142520352012045	0.07709068311095607	-0.10451718980586902	0.29480622376744775	0.08614936729220324
262	4.678571428571429	0.27779907324336856	0.4935132091482428	0.8394238315563952	0.24059258605445852	0.5461041302858454	1.2591192414167802	0.21570722222331026	0.7426670640866697	1.7108829826758447	0.2392923526197524	0.545704398767728	1.7349026090138318	0.28666844541193504	0.575896873241862	1.7350232129951046	0.20166711605270574	0.7990250615723957	1.7635462411141083	0.06480449721520677	0.5029268708077741	0.8537447369701608	0.05466405061511072	0.5511759028870208	1.259295150339305	0.030349106889892546	0.6716769551258217	1.7000264095231785	0.08495871047880602	0.49671565157236197	1.727703856454413	0.03463741595603007	0.5171180202859033	1.7241456018452077	0.04832732068417222	0.736196569426761	1.7538696105507052	0.14851615370058222	0.48772709809725023	0.21886289569539602	0.10309259632573428	0.38884189021650145	-0.007848088331902734	0.09555266605221387	0.37085033823798863	0.13536140555618478	0.30686984224161895	0.47501357948881723	0.2902822637391582	0.5139464119040194	0.45139423725370215	0.4670363271589121	0.5493431854495399	0.1831566241142287	0.37172735127476264	0.4888885397100196	0.07541694475688819	0.3334906397828508	0.4895734879537072	0.04000518385196934	0.3318331579684372	0.5475481135129557	0.05279266731644123	0.36478673106523907	0.006165375383765496	0.5140704593251849	0.2965850697276726	-0.2464775808293624	0.4273876284254825	0.32282452857017696	-0.11718128754051754	0.33362009707861134	0.15206442673775414	-0.04830499865510488	0.2706270378788545	0.09453987768931599	-0.05809391267403422	0.27635003478674114	0.07432603952915001	-0.11080237230554058	0.3041957797393967	0.0832607637382758
263	4.696428571428571	0.26911964103027464	0.5072802227201427	0.8429075150726981	0.24045465255541634	0.5461307886289679	1.259060688445079	0.21572469420967272	0.7427810193612588	1.7109675740750447	0.23735418061391136	0.5326707535475959	1.7286865191463707	0.2910879924074953	0.5779779186524464	1.7356335833642134	0.20168136224416472	0.7993453481848287	1.7636803775549685	0.0584443461750561	0.5165744813104797	0.8537736906611164	0.05462289951288148	0.5512326661826426	1.2592731386412583	0.03087911438398704	0.6705030949002273	1.7037124053417125	0.0859513362455509	0.4962925265781745	1.7236307473602057	0.02688535368519871	0.516383579855108	1.7246312004479183	0.042663767866042056	0.7169025947589059	1.7451351906301087	0.14465623138944322	0.48645293032083886	0.22224042178274514	0.10338511541788604	0.3888121326814633	-0.011713865577597715	0.10108426347884461	0.35944901371620197	0.13545583633076633	0.30550684167142333	0.4856713083781521	0.29810697460583296	0.5168391438555169	0.45415319690451766	0.4967876406689962	0.5409490965317268	0.2060073938801786	0.4106496439874172	0.4874489711587322	0.06794623106860573	0.34336790424763863	0.49158203852440047	0.042673067386532704	0.3526579395528812	0.538852933531228	0.07397169206213801	0.40000058169608654	0.006193378866254999	0.5138879736111116	0.2963384845645408	-0.24290860975685388	0.41238161898294046	0.3262665422305304	-0.12066299603034542	0.3315120531807588	0.15921801580320674	-0.055494872042784485	0.26598593695278994	0.09863923819887063	-0.07135710896644985	0.26605694024333754	0.08478222990332927	-0.11519357757131897	0.29135865260052446	0.08744446952320405
264	4.714285714285714	0.2684234292747751	0.5071047753655495	0.8467288002495681	0.24129267709006527	0.548400057981084	1.2639347066906925	0.21571627404058738	0.7431728284953236	1.7112087914024297	0.23639678331036398	0.5335797158563715	1.7335671921370956	0.28590091451583344	0.5951675805672432	1.7444623755227016	0.20174393566606824	0.7996020903285911	1.7635253846526668	0.053943858923436186	0.515151398731017	0.8572577798081013	0.04769524317273235	0.5659019778650805	1.2649450342385402	0.0379462587204497	0.6549598846466196	1.696350306951211	0.08518629946544602	0.49636781871201485	1.7276808809919797	0.03479787684655373	0.5167282935366482	1.72384384360352	0.045614835019876634	0.7325240452919842	1.7612480743798706	0.1543034128375373	0.4763772003068119	0.22218800188776705	0.10880159201174577	0.3764201584992933	-0.014133265109039082	0.10139523660263917	0.3590349151262934	0.1353770168130089	0.3096025508934848	0.4885460576991503	0.2982597139345391	0.5047227668810955	0.4648916174155162	0.5107146084855767	0.524751735196886	0.19223290304674542	0.4267944869004534	0.48396139984318265	0.06026503509125727	0.39304909634803015	0.4834954830788213	0.04448492164016641	0.4017880127285387	0.525982969810828	0.09488062389302229	0.4234107855902901	0.012229609459195611	0.501944997864309	0.29590947488242325	-0.23624889052077033	0.40259751806776445	0.33248041454840543	-0.12131920718234598	0.32158511628647574	0.1626838809303941	-0.06537659571924709	0.2631701825748097	0.0988016164619992	-0.08213586033284627	0.26427022881981377	0.082054685773366	-0.11992884604896283	0.26654715200871404	0.09232353978023858
265	4.732142857142857	0.261178321813273	0.49096084884455177	0.836255246280218	0.24121834988187338	0.5483854491399077	1.2638947044386148	0.2157132445759641	0.7430201263819551	1.7111090689407538	0.23638414451951226	0.5335198717009394	1.7338031475018199	0.2915989210489267	0.5793463180600456	1.7360573679774203	0.19747124321381673	0.7969498165788684	1.76302963638827	0.06015484367931152	0.4996205493185026	0.8490169632227902	0.047661488326292634	0.5659920045280605	1.264847883712263	0.037897562488734014	0.6550119868886897	1.6963016141290097	0.08520301920657872	0.49650745311631644	1.7277895880682375	0.033811312395758734	0.5024484689107054	1.7170968924879688	0.043827411525900896	0.7303848847877863	1.7618484435546993	0.15584612972798836	0.4881884100290793	0.22217692418883261	0.11468103054985748	0.3630587702553849	-0.017383849584970096	0.10699428246278761	0.3478212273267399	0.1355210164179028	0.31664677547495595	0.5056922179742592	0.30903057218303326	0.49420556868832916	0.4503784982568886	0.514877673859666	0.5062691833871122	0.2154762628404191	0.4506819802473	0.46993300504177343	0.07241000671924312	0.4142647122681403	0.48197691873010523	0.050297885451859786	0.414520360844066	0.5199482221110164	0.09357235820056946	0.4765108764545018	0.011006398007933283	0.4890684835784622	0.29197671455194407	-0.23251605796523767	0.4055507008156481	0.33281704551441565	-0.12235467936668329	0.31063577303868944	0.16632688542891003	-0.07511024889201003	0.2711836726091762	0.10170261994991346	-0.09598438313265938	0.2649418047427463	0.08260236695511543	-0.12499371875065621	0.24193348871516593	0.09709071615811411
